<svg id="e4eevkkfv77x1" xmlns="http://www.w3.org/2000/svg" xmlns:xlink="http://www.w3.org/1999/xlink" viewBox="0 0 512 512" shape-rendering="geometricPrecision" text-rendering="geometricPrecision"><g id="e4eevkkfv77x2" transform="matrix(0.10000000000000 0 0 -0.10000000000000 0 512)"><path id="e4eevkkfv77x3" d="M1995,5114C1715,5091,1408,5008,1185,4896C829,4715,619,4452,554,4103C543,4042,528,3998,505,3960C443,3856,377,3671,378,3603C378,3549,402,3510,454,3476C489,3452,503,3449,552,3452C599,3456,617,3463,664,3498L720,3541L718,3059L715,2576L670,2565C591,2544,517,2499,444,2426C331,2313,285,2200,287,2040C290,1803,453,1596,683,1537C716,1528,744,1519,746,1517C749,1515,764,1461,780,1399C964,671,1567,126,2305,19C2421,2,2699,2,2815,19C3419,106,3938,482,4209,1026C4265,1139,4332,1328,4355,1439C4364,1480,4372,1516,4374,1518C4376,1520,4404,1528,4437,1537C4765,1622,4930,1990,4777,2295C4719,2412,4571,2533,4450,2565L4405,2576L4400,3441L4395,4305L4368,4386C4302,4579,4162,4719,3965,4786C3897,4809,3869,4813,3775,4813C3704,4813,3648,4807,3618,4797L3570,4782L3207,4905C2831,5032,2739,5057,2535,5091C2418,5110,2110,5123,1995,5114ZM2480,4904C2682,4874,2811,4838,3245,4689L3480,4608L3480,4357L3480,4107L3423,4038C3337,3933,3181,3791,3070,3715C2777,3518,2461,3421,2107,3420C1783,3420,1506,3499,1194,3683C1083,3748,1018,3770,920,3777C832,3783,736,3764,659,3724C631,3710,606,3701,604,3703C596,3711,639,3814,670,3860C722,3939,800,4009,882,4050C1035,4126,1173,4130,1350,4062C1482,4012,1541,4000,1660,3999C1767,3998,1863,4017,1954,4057C2106,4124,2260,4260,2260,4327C2260,4392,2192,4442,2135,4420C2119,4414,2075,4379,2036,4342C1870,4184,1664,4149,1430,4238C1288,4292,1223,4304,1088,4298C983,4293,903,4275,807,4235C791,4228,792,4234,814,4283C918,4519,1157,4703,1506,4819C1675,4875,1797,4898,2055,4924C2127,4931,2373,4919,2480,4904ZM3953,4583C4089,4519,4179,4399,4200,4255C4205,4215,4210,3917,4210,3557L4210,2928L4178,2935C4129,2945,4001,2998,3969,3021C3824,3124,3731,3253,3694,3402C3672,3493,3660,4597,3681,4611C3689,4617,3738,4619,3790,4618C3872,4615,3894,4610,3953,4583ZM3504,3368C3561,3124,3738,2908,3964,2804C3994,2790,4061,2769,4112,2756L4205,2732L4205,2218C4205,1672,4202,1633,4153,1435C4040,977,3729,590,3300,371C3072,254,2830,198,2560,198C2190,198,1867,306,1570,531C1281,749,1055,1092,964,1450C917,1636,917,1644,913,2639L909,3583L957,3576C990,3572,1042,3548,1125,3501C1455,3311,1748,3229,2100,3228C2589,3227,3015,3390,3385,3718L3475,3798L3481,3617C3485,3509,3494,3408,3504,3368ZM713,1732C693,1727,620,1770,576,1813C553,1836,523,1878,510,1905C488,1948,485,1969,485,2055C485,2140,489,2161,508,2198C543,2264,609,2330,665,2356L715,2380L720,2057C724,1815,722,1734,713,1732ZM4478,2346C4516,2327,4583,2252,4612,2198C4631,2161,4635,2140,4635,2055C4635,1938,4615,1884,4544,1813C4505,1774,4434,1730,4410,1730C4403,1730,4400,1837,4400,2055L4400,2380L4425,2370C4439,2365,4463,2354,4478,2346Z" fill="rgb(242,242,242)" stroke="none" stroke-width="1"/><path id="e4eevkkfv77x4" d="M1477,2340C1388,2317,1287,2245,1274,2196C1266,2164,1285,2114,1314,2095C1348,2071,1400,2077,1444,2110C1523,2170,1591,2170,1679,2110C1731,2075,1776,2071,1813,2100C1845,2126,1857,2178,1838,2213C1789,2304,1600,2371,1477,2340Z" fill="rgb(242,242,242)" stroke="none" stroke-width="1"/><path id="e4eevkkfv77x5" d="M3477,2340C3399,2320,3305,2259,3280,2211C3263,2178,3276,2125,3307,2100C3344,2071,3389,2075,3444,2111C3529,2168,3596,2167,3675,2111C3745,2061,3812,2073,3840,2139C3865,2201,3823,2259,3715,2311C3648,2343,3541,2356,3477,2340Z" fill="rgb(242,242,242)" stroke="none" stroke-width="1"/><path id="e4eevkkfv77x6" d="M1460,1309C1423,1294,1400,1260,1400,1217C1400,1183,1407,1172,1458,1123C1611,976,1815,850,2015,780C2204,713,2357,687,2560,687C2763,687,2916,713,3105,780C3305,850,3509,976,3663,1123C3712,1171,3720,1184,3720,1215C3720,1281,3669,1325,3605,1313C3590,1310,3550,1282,3516,1250C3383,1125,3180,1007,2998,946C2735,858,2385,858,2122,946C1939,1007,1737,1125,1602,1251C1568,1284,1533,1310,1525,1310C1518,1310,1506,1312,1498,1314C1491,1317,1474,1314,1460,1309Z" fill="rgb(242,242,242)" stroke="none" stroke-width="1"/></g></svg>