<?xml version="1.0" standalone="no"?>
<!DOCTYPE svg PUBLIC "-//W3C//DTD SVG 20010904//EN"
 "http://www.w3.org/TR/2001/REC-SVG-20010904/DTD/svg10.dtd">
<svg version="1.0" xmlns="http://www.w3.org/2000/svg"
 width="512.000000pt" height="512.000000pt" viewBox="0 0 512.000000 512.000000"
 preserveAspectRatio="xMidYMid meet">

<g transform="translate(0.000000,512.000000) scale(0.100000,-0.100000)"
fill="#f2f2f2" stroke="none">
<path d="M1995 5114 c-280 -23 -587 -106 -810 -218 -356 -181 -566 -444 -631
-793 -11 -61 -26 -105 -49 -143 -62 -104 -128 -289 -127 -357 0 -54 24 -93 76
-127 35 -24 49 -27 98 -24 47 4 65 11 112 46 l56 43 -2 -482 -3 -483 -45 -11
c-79 -21 -153 -66 -226 -139 -113 -113 -159 -226 -157 -386 3 -237 166 -444
396 -503 33 -9 61 -18 63 -20 3 -2 18 -56 34 -118 184 -728 787 -1273 1525
-1380 116 -17 394 -17 510 0 604 87 1123 463 1394 1007 56 113 123 302 146
413 9 41 17 77 19 79 2 2 30 10 63 19 328 85 493 453 340 758 -58 117 -206
238 -327 270 l-45 11 -5 865 -5 864 -27 81 c-66 193 -206 333 -403 400 -68 23
-96 27 -190 27 -71 0 -127 -6 -157 -16 l-48 -15 -363 123 c-376 127 -468 152
-672 186 -117 19 -425 32 -540 23z m485 -210 c202 -30 331 -66 765 -215 l235
-81 0 -251 0 -250 -57 -69 c-86 -105 -242 -247 -353 -323 -293 -197 -609 -294
-963 -295 -324 0 -601 79 -913 263 -111 65 -176 87 -274 94 -88 6 -184 -13
-261 -53 -28 -14 -53 -23 -55 -21 -8 8 35 111 66 157 52 79 130 149 212 190
153 76 291 80 468 12 132 -50 191 -62 310 -63 107 -1 203 18 294 58 152 67
306 203 306 270 0 65 -68 115 -125 93 -16 -6 -60 -41 -99 -78 -166 -158 -372
-193 -606 -104 -142 54 -207 66 -342 60 -105 -5 -185 -23 -281 -63 -16 -7 -15
-1 7 48 104 236 343 420 692 536 169 56 291 79 549 105 72 7 318 -5 425 -20z
m1473 -321 c136 -64 226 -184 247 -328 5 -40 10 -338 10 -698 l0 -629 -32 7
c-49 10 -177 63 -209 86 -145 103 -238 232 -275 381 -22 91 -34 1195 -13 1209
8 6 57 8 109 7 82 -3 104 -8 163 -35z m-449 -1215 c57 -244 234 -460 460 -564
30 -14 97 -35 148 -48 l93 -24 0 -514 c0 -546 -3 -585 -52 -783 -113 -458
-424 -845 -853 -1064 -228 -117 -470 -173 -740 -173 -370 0 -693 108 -990 333
-289 218 -515 561 -606 919 -47 186 -47 194 -51 1189 l-4 944 48 -7 c33 -4 85
-28 168 -75 330 -190 623 -272 975 -273 489 -1 915 162 1285 490 l90 80 6
-181 c4 -108 13 -209 23 -249z m-2791 -1636 c-20 -5 -93 38 -137 81 -23 23
-53 65 -66 92 -22 43 -25 64 -25 150 0 85 4 106 23 143 35 66 101 132 157 158
l50 24 5 -323 c4 -242 2 -323 -7 -325z m3765 614 c38 -19 105 -94 134 -148 19
-37 23 -58 23 -143 0 -117 -20 -171 -91 -242 -39 -39 -110 -83 -134 -83 -7 0
-10 107 -10 325 l0 325 25 -10 c14 -5 38 -16 53 -24z"/>
<path d="M1477 2340 c-89 -23 -190 -95 -203 -144 -8 -32 11 -82 40 -101 34
-24 86 -18 130 15 79 60 147 60 235 0 52 -35 97 -39 134 -10 32 26 44 78 25
113 -49 91 -238 158 -361 127z"/>
<path d="M3477 2340 c-78 -20 -172 -81 -197 -129 -17 -33 -4 -86 27 -111 37
-29 82 -25 137 11 85 57 152 56 231 0 70 -50 137 -38 165 28 25 62 -17 120
-125 172 -67 32 -174 45 -238 29z"/>
<path d="M1460 1309 c-37 -15 -60 -49 -60 -92 0 -34 7 -45 58 -94 153 -147
357 -273 557 -343 189 -67 342 -93 545 -93 203 0 356 26 545 93 200 70 404
196 558 343 49 48 57 61 57 92 0 66 -51 110 -115 98 -15 -3 -55 -31 -89 -63
-133 -125 -336 -243 -518 -304 -263 -88 -613 -88 -876 0 -183 61 -385 179
-520 305 -34 33 -69 59 -77 59 -7 0 -19 2 -27 4 -7 3 -24 0 -38 -5z"/>
</g>
</svg>
