<?xml version="1.0" standalone="no"?>
<!DOCTYPE svg PUBLIC "-//W3C//DTD SVG 20010904//EN"
 "http://www.w3.org/TR/2001/REC-SVG-20010904/DTD/svg10.dtd">
<svg version="1.0" xmlns="http://www.w3.org/2000/svg"
 width="512.000000pt" height="512.000000pt" viewBox="0 0 512.000000 512.000000"
 preserveAspectRatio="xMidYMid meet">

<g transform="translate(0.000000,512.000000) scale(0.100000,-0.100000)"
fill="#f2f2f2" stroke="none">
<path d="M2330 5110 c-494 -48 -950 -230 -1350 -538 -195 -150 -448 -432 -594
-662 -63 -99 -186 -351 -230 -471 -49 -134 -102 -340 -128 -499 -31 -195 -31
-565 0 -760 45 -276 116 -498 237 -745 132 -269 269 -460 489 -681 221 -220
412 -357 681 -489 247 -121 469 -192 745 -237 195 -31 565 -31 760 0 276 45
498 116 745 237 269 132 460 269 681 489 220 221 357 412 489 681 88 179 132
296 180 476 63 240 78 371 78 649 0 278 -15 409 -78 649 -48 180 -92 297 -180
476 -132 269 -269 460 -489 681 -221 220 -412 357 -681 489 -246 121 -474 193
-740 235 -147 23 -475 34 -615 20z m510 -301 c236 -31 495 -107 701 -207 239
-116 427 -250 619 -442 364 -364 577 -800 651 -1330 15 -110 15 -430 0 -540
-59 -424 -204 -779 -454 -1110 -92 -122 -295 -325 -417 -417 -331 -250 -686
-395 -1110 -454 -47 -7 -168 -12 -270 -12 -268 0 -461 31 -711 113 -340 112
-630 291 -889 550 -364 364 -577 800 -651 1330 -15 110 -15 430 0 540 59 424
204 779 454 1110 92 122 295 325 417 417 369 278 788 435 1250 467 79 5 322
-4 410 -15z"/>
<path d="M2686 3934 c-183 -44 -337 -201 -381 -386 -11 -46 -15 -125 -15 -285
l0 -223 -184 0 c-174 0 -185 -1 -217 -23 -95 -63 -86 -203 15 -251 27 -13 68
-16 210 -16 l176 0 0 -692 c0 -640 1 -696 18 -728 47 -95 165 -107 242 -25
l25 27 3 709 2 709 266 0 c225 0 271 3 300 16 98 47 110 183 21 248 -27 20
-45 21 -305 26 l-277 5 0 215 c0 241 5 266 62 325 62 64 82 69 335 75 253 6
264 9 300 81 24 46 22 86 -5 133 -40 71 -61 76 -312 75 -153 0 -238 -5 -279
-15z"/>
</g>
</svg>
