<?xml version="1.0" standalone="no"?>
<!DOCTYPE svg PUBLIC "-//W3C//DTD SVG 20010904//EN"
 "http://www.w3.org/TR/2001/REC-SVG-20010904/DTD/svg10.dtd">
<svg version="1.0" xmlns="http://www.w3.org/2000/svg"
 width="512.000000pt" height="512.000000pt" viewBox="0 0 512.000000 512.000000"
 preserveAspectRatio="xMidYMid meet">

<g transform="translate(0.000000,512.000000) scale(0.100000,-0.100000)"
fill="#f2f2f2" stroke="none">
<path d="M1245 5105 c-614 -84 -1096 -546 -1222 -1170 -26 -133 -24 -395 5
-531 25 -116 72 -256 144 -429 394 -947 1068 -1763 1923 -2331 442 -293 975
-544 1309 -616 135 -29 397 -32 531 -5 420 85 767 326 980 682 102 169 163
345 190 545 30 217 14 289 -76 335 -36 19 -1194 267 -1245 267 -23 0 -55 -7
-70 -15 -16 -9 -128 -115 -249 -236 l-219 -220 -112 58 c-225 120 -472 287
-693 470 -141 117 -398 371 -508 501 -181 216 -370 491 -492 720 l-62 114 225
226 c123 124 229 236 236 248 6 13 12 43 12 65 -1 35 -220 1087 -253 1209 -12
47 -54 97 -96 114 -39 17 -135 16 -258 -1z m75 -322 c0 -4 45 -218 101 -477
l101 -469 -235 -236 c-129 -130 -240 -246 -246 -258 -26 -52 -14 -106 58 -250
216 -429 484 -798 840 -1154 351 -351 694 -602 1128 -826 134 -69 170 -83 208
-83 26 0 56 5 68 11 12 6 128 117 258 246 l236 235 474 -102 c261 -56 476
-104 478 -106 2 -2 -2 -37 -9 -76 -97 -545 -607 -947 -1160 -914 -177 10 -346
62 -660 204 -549 247 -1029 581 -1457 1013 -342 346 -589 679 -826 1116 -133
243 -286 607 -327 774 -44 179 -35 409 22 582 110 338 372 609 698 723 116 40
250 66 250 47z"/>
</g>
</svg>
