<?xml version="1.0" standalone="no"?>
<!DOCTYPE svg PUBLIC "-//W3C//DTD SVG 20010904//EN"
 "http://www.w3.org/TR/2001/REC-SVG-20010904/DTD/svg10.dtd">
<svg version="1.0" xmlns="http://www.w3.org/2000/svg"
 width="512.000000pt" height="512.000000pt" viewBox="0 0 512.000000 512.000000"
 preserveAspectRatio="xMidYMid meet">

<g transform="translate(0.000000,512.000000) scale(0.100000,-0.100000)"
fill="#f2f2f2" stroke="none">
<path d="M2425 5114 c-456 -46 -825 -216 -1129 -520 -438 -438 -626 -1162
-476 -1839 43 -196 144 -443 240 -586 172 -256 1494 -2159 1500 -2159 6 0
1328 1903 1500 2159 23 35 69 119 101 185 126 266 189 552 189 866 0 541 -190
1037 -526 1374 -268 269 -613 445 -979 502 -92 14 -349 25 -420 18z m360 -198
c479 -74 882 -336 1125 -731 187 -305 282 -713 252 -1092 -23 -282 -90 -523
-205 -731 -51 -91 -1384 -2022 -1397 -2022 -12 0 -1346 1930 -1395 2020 -261
470 -282 1109 -54 1633 213 492 664 834 1214 922 109 17 350 18 460 1z"/>
<path d="M2505 3994 c-11 -2 -45 -9 -75 -15 -73 -14 -203 -78 -265 -129 -103
-86 -195 -231 -223 -350 -66 -282 54 -569 301 -718 132 -80 314 -110 467 -78
188 39 364 176 449 346 177 360 4 781 -374 912 -79 27 -228 44 -280 32z m191
-203 c347 -93 462 -522 209 -776 -89 -89 -200 -135 -325 -135 -416 0 -625 497
-331 791 121 120 283 164 447 120z"/>
</g>
</svg>
