<?xml version="1.0" standalone="no"?>
<!DOCTYPE svg PUBLIC "-//W3C//DTD SVG 20010904//EN"
 "http://www.w3.org/TR/2001/REC-SVG-20010904/DTD/svg10.dtd">
<svg version="1.0" xmlns="http://www.w3.org/2000/svg"
 width="512.000000pt" height="512.000000pt" viewBox="0 0 512.000000 512.000000"
 preserveAspectRatio="xMidYMid meet">

<g transform="translate(0.000000,512.000000) scale(0.100000,-0.100000)"
fill="#f2f2f2" stroke="none">
<path d="M1250 5106 c-318 -46 -599 -186 -824 -412 -432 -432 -548 -1096 -285
-1639 l38 -80 -15 -95 c-22 -134 -29 -431 -14 -576 68 -675 416 -1293 955
-1699 350 -263 718 -413 1170 -477 139 -19 446 -16 596 6 l127 19 83 -36 c197
-83 343 -110 599 -111 207 -1 304 13 467 65 215 69 395 180 559 343 163 164
274 344 343 559 52 163 66 260 65 467 -1 256 -28 402 -111 599 l-36 83 19 127
c22 150 25 457 6 596 -64 452 -214 820 -477 1170 -406 539 -1024 887 -1699
955 -145 15 -442 8 -576 -14 l-95 -15 -80 38 c-99 48 -242 95 -355 116 -117
23 -342 28 -460 11z m435 -181 c114 -23 246 -69 341 -119 l82 -42 114 18 c154
25 436 34 580 19 290 -31 541 -106 798 -236 660 -337 1104 -958 1216 -1700 26
-172 24 -464 -4 -644 l-21 -135 39 -81 c46 -96 83 -217 100 -330 20 -124 18
-392 -4 -500 -100 -504 -477 -881 -981 -981 -108 -22 -376 -24 -500 -4 -113
17 -234 54 -330 100 l-81 39 -135 -21 c-180 -28 -472 -30 -644 -4 -742 112
-1363 556 -1700 1216 -132 260 -207 514 -236 805 -15 149 -6 418 19 573 l18
114 -42 82 c-50 96 -95 226 -121 346 -21 101 -23 348 -4 450 108 575 549 983
1141 1054 68 8 276 -3 355 -19z"/>
<path d="M2405 4224 c-716 -74 -1143 -351 -1220 -793 -77 -436 168 -819 660
-1035 182 -80 361 -128 670 -181 200 -34 282 -57 394 -112 245 -118 284 -278
107 -441 -60 -55 -153 -103 -247 -129 -49 -14 -101 -18 -219 -18 -134 0 -164
3 -222 22 -194 66 -335 205 -429 426 -47 110 -79 157 -127 191 -92 63 -231 96
-322 77 -171 -37 -298 -173 -323 -345 -14 -94 7 -210 62 -341 172 -419 624
-665 1272 -693 417 -18 722 43 996 200 392 225 606 584 572 958 -32 345 -214
581 -584 756 -175 82 -342 134 -685 209 -471 104 -720 226 -720 354 0 133 255
254 535 254 125 0 176 -10 267 -52 72 -34 112 -78 174 -186 142 -252 262 -356
426 -371 103 -10 230 29 290 90 92 92 129 188 129 336 1 169 -46 271 -191 424
-183 191 -413 313 -709 377 -76 16 -140 21 -306 24 -115 1 -228 1 -250 -1z
m392 -155 c287 -32 542 -145 721 -320 124 -121 154 -187 156 -334 1 -93 -1
-104 -29 -155 -39 -71 -91 -100 -183 -100 -77 0 -120 20 -183 87 -54 56 -89
107 -149 218 -82 149 -183 228 -355 276 -65 19 -105 23 -215 23 -317 -1 -570
-109 -675 -288 -37 -64 -46 -174 -20 -242 23 -60 112 -149 201 -202 145 -86
301 -136 689 -223 671 -149 984 -348 1070 -679 24 -91 25 -284 2 -370 -72
-266 -310 -511 -615 -633 -214 -86 -384 -111 -687 -104 -296 7 -497 43 -700
127 -245 103 -430 286 -504 499 -58 169 -43 288 46 358 59 46 77 53 145 53
126 0 164 -25 208 -139 80 -205 236 -393 397 -479 188 -100 451 -126 678 -67
88 23 231 97 302 156 67 55 143 159 169 230 8 24 15 76 16 114 1 130 -62 241
-186 329 -135 97 -279 147 -581 202 -511 93 -779 206 -981 411 -66 66 -91 100
-127 175 -25 51 -51 120 -58 153 -17 79 -16 236 0 305 73 299 383 511 869 595
194 33 416 42 579 24z"/>
</g>
</svg>
